<?xml version="1.0" encoding="UTF-8"?>
<svg width="18px" height="18px" viewBox="0 0 18 18" version="1.1" xmlns="http://www.w3.org/2000/svg" xmlns:xlink="http://www.w3.org/1999/xlink">
    <title>DEAEF3EF-C47C-48AE-8956-9490C0903982</title>
    <g id="Cookbook" stroke="none" stroke-width="1" fill="none" fill-rule="evenodd">
        <g id="Inputs-/-Barcelona-/-Error" transform="translate(-135.000000, -28.000000)" fill="#EA4453">
            <path d="M144,28.5 C148.69442,28.5 152.5,32.3055796 152.5,37 C152.5,41.6944204 148.69442,45.5 144,45.5 C139.30558,45.5 135.5,41.6944204 135.5,37 C135.5,32.3055796 139.30558,28.5 144,28.5 Z M144,29.5 C139.857864,29.5 136.5,32.8578644 136.5,37 C136.5,41.1421356 139.857864,44.5 144,44.5 C148.142136,44.5 151.5,41.1421356 151.5,37 C151.5,32.8578644 148.142136,29.5 144,29.5 Z M141.884306,34.1885912 L141.953553,34.2464466 L144,36.293 L146.046447,34.2464466 C146.241709,34.0511845 146.558291,34.0511845 146.753553,34.2464466 C146.92712,34.420013 146.946405,34.6894374 146.811409,34.8843055 L146.753553,34.9535534 L144.707,37 L146.753553,39.0464466 C146.948816,39.2417088 146.948816,39.5582912 146.753553,39.7535534 C146.579987,39.9271197 146.310563,39.9464049 146.115694,39.8114088 L146.046447,39.7535534 L144,37.707 L141.953553,39.7535534 C141.758291,39.9488155 141.441709,39.9488155 141.246447,39.7535534 C141.07288,39.579987 141.053595,39.3105626 141.188591,39.1156945 L141.246447,39.0464466 L143.293,37 L141.246447,34.9535534 C141.051184,34.7582912 141.051184,34.4417088 141.246447,34.2464466 C141.420013,34.0728803 141.689437,34.0535951 141.884306,34.1885912 Z" id="Shape"></path>
        </g>
    </g>
</svg>