<?xml version="1.0" encoding="UTF-8"?>
<svg width="200px" height="74px" viewBox="0 0 200 74" version="1.1" xmlns="http://www.w3.org/2000/svg" xmlns:xlink="http://www.w3.org/1999/xlink">
    <title>13CD29E6-DE33-4FBB-AE52-D4DEF19E48DC</title>
    <g id="Page-1" stroke="none" stroke-width="1" fill="none" fill-rule="evenodd">
        <g id="A4---COOKBOOK---SIDEBAR_INTERACTION" transform="translate(-36.000000, -149.000000)" fill="#FFFFFF" fill-rule="nonzero">
            <path d="M110.112747,155.564842 C106.775246,151.607835 102.499934,149.449467 97.3695593,149.062068 C92.1840195,148.674668 87.467385,150.11358 83.1920729,153.019075 C81.978436,153.849217 80.847547,154.817715 79.63391,155.730871 C78.2547771,154.651687 76.7101482,153.821545 74.9724407,153.295789 C70.3661368,151.967563 65.9804941,152.659347 61.9258434,155.066758 C56.3265637,158.387323 53.07181,163.368172 52.2994956,169.92629 C52.2443303,170.369032 52.0788343,170.507389 51.6650945,170.562731 C49.761891,170.811774 47.9414356,171.365202 46.2037281,172.223014 C41.6250068,174.436725 38.1771746,177.729619 36.6325457,182.682797 C35.3913261,186.695147 35.9705619,190.486126 38.4254185,193.945049 C40.3562046,196.656845 43.0041398,198.37247 46.1485628,199.36864 C50.6445361,200.77988 55.0577614,200.447824 59.4158215,198.732198 C60.1053879,198.455484 60.7949544,198.123428 61.5121035,197.791371 C61.5396861,197.929728 61.5672688,197.985071 61.5672688,198.040414 C62.0637567,200.032753 62.5050792,202.025093 63.0567324,203.989761 C63.4153069,205.234973 64.6289439,205.456344 65.6219196,204.653874 C66.3666514,204.045103 67.1941311,203.464004 68.0491935,203.021262 C70.7247114,201.637693 73.5933078,200.77988 76.489487,200.115767 C80.7372163,199.119597 85.0125284,198.510827 89.398171,198.676855 C91.4944531,198.75987 93.5631525,199.036583 95.4939385,199.922068 C96.8730714,200.558509 97.7281339,200.143439 98.0315431,198.676855 C98.5004483,196.380131 98.7211096,194.083406 98.5280309,191.75901 C98.5004483,191.343939 98.6107789,191.15024 98.9969361,190.984211 C102.803343,189.379271 106.030514,186.999532 108.650867,183.789652 C112.981344,178.476747 114.994878,172.444385 114.250146,165.554211 C113.919154,161.818575 112.540021,158.442666 110.112747,155.564842 Z M108.568119,178.836475 C106.140845,182.95951 102.77576,186.058705 98.4177003,187.995702 C98.3349523,188.023373 98.279787,188.051045 98.197039,188.078716 C97.8936298,187.054875 97.6178032,186.031034 97.2868113,185.034864 C96.9834021,184.094037 96.6248275,183.180882 96.2386703,182.267726 C95.9076784,181.54827 94.9974507,181.299228 94.3078842,181.631284 L95.6042692,195.660675 C95.5766865,195.96506 95.5215212,196.269445 95.4939385,196.546159 C94.2527189,196.297117 93.0390819,196.020403 91.825445,195.854374 C89.2326751,195.522318 86.6123226,195.577661 84.0195527,195.826703 C80.1855632,196.186431 76.4343216,196.905887 72.7382454,198.040414 C70.3385541,198.787541 67.9664455,199.617682 65.7874155,200.862895 C65.6770849,200.918237 65.5391716,200.97358 65.346093,201.084266 C65.0702664,199.783711 64.8220225,198.56617 64.5737786,197.320958 C63.9945427,194.387791 63.8842121,191.454625 63.9945427,188.466115 C64.0221254,187.608303 63.4428896,186.944189 62.6429925,186.861175 C61.870678,186.778161 61.0983636,187.35926 61.070781,188.217073 C61.0431983,190.181741 61.0983636,192.174081 61.1259463,194.138749 C61.1259463,194.332448 61.1811116,194.526148 61.1811116,194.664505 C60.2157185,195.079576 59.3330735,195.522318 58.4228458,195.882046 C53.9820378,197.597671 49.5412298,197.7637 45.1555871,195.660675 C41.9008334,194.083406 39.7218034,191.592982 39.1701503,187.912688 C38.6460797,184.426094 39.8597167,181.382242 42.2318253,178.808803 C45.7899882,174.93481 50.2859616,173.219184 55.499084,173.357541 C57.2919568,173.385212 59.0020816,173.772612 60.6294584,174.54741 C60.8501197,174.658096 61.0983636,174.768781 61.3190249,174.824124 C62.0913393,174.990153 62.8084884,174.54741 63.0291497,173.800283 C63.249811,173.053156 62.8912364,172.278357 62.1465046,171.946301 C60.0778053,171.005474 57.9263579,170.452046 55.6645799,170.34136 C55.5542493,170.34136 55.4439187,170.313689 55.25084,170.286018 C55.3611707,169.53889 55.416336,168.791763 55.6094146,168.099978 C57.0437128,162.842416 60.1881359,158.968422 65.2081797,156.810055 C69.1249172,155.149772 73.014072,155.205115 76.7653135,157.391154 C77.0687228,157.557182 77.3169667,157.778553 77.5927933,157.972253 C76.8756442,159.023765 76.1584951,160.019935 75.4965113,161.071447 C74.3932049,162.842416 73.5381425,164.72407 72.9589067,166.716409 C72.6554974,167.712579 73.0692373,168.515049 73.9242997,168.764092 C74.7793621,169.013134 75.4965113,168.487378 75.8275032,167.518879 C77.2618014,163.174472 79.716658,159.52185 83.2748209,156.616355 C86.1158347,154.291959 89.3430057,152.742362 92.956334,152.216605 C99.2175974,151.331121 104.513468,153.129761 108.402623,158.276638 C110.195495,160.656377 111.133306,163.423515 111.38155,166.384353 C111.822872,170.867117 110.829897,175.017824 108.568119,178.836475 Z M99.327928,210.686235 C99.2451801,210.492535 99.1624321,210.298836 99.0796841,210.132807 C98.8314402,209.524037 98.2246217,209.108966 97.5902206,209.164309 C96.9282368,209.219652 96.3765836,209.662394 96.2110877,210.326507 C96.018009,211.073634 95.7145998,211.599391 95.3008599,211.848433 C94.9422854,212.042133 94.5009628,212.042133 93.9493097,211.848433 C93.0942473,211.544048 92.2391849,211.018292 91.6875317,210.630892 C89.7567456,209.302666 87.1088104,207.919097 83.8816394,208.749238 C82.943829,208.998281 82.1439319,209.413352 81.3716175,209.828422 C81.3164522,209.856094 81.2337042,209.911436 81.1785389,209.939108 C79.4408314,208.804581 78.1444465,208.472525 76.0757471,208.610881 C73.8415518,208.749238 72.0762616,209.828422 70.6143807,210.796921 C70.0903102,211.128977 69.3179958,211.627062 68.5456814,211.903776 C68.1595241,212.042133 67.607871,212.152818 67.1941311,211.903776 C66.8631392,211.710076 66.6148953,211.267334 66.5321473,210.658564 C66.4493993,210.049793 65.9804941,209.57938 65.4012583,209.413352 L65.0151011,209.330337 C64.215204,209.136638 63.4428896,209.607051 63.2222283,210.38185 C63.167063,210.603221 63.084315,210.824592 63.001567,211.073634 C62.7809058,211.682405 62.5602445,212.401861 62.5050792,213.176659 C62.3947486,215.888455 63.4428896,218.323536 65.5391716,220.20519 C67.5802883,222.00383 70.2833888,223 73.1244026,223 C73.4829772,223 73.8691344,222.972329 74.227709,222.944657 C76.9032268,222.695615 79.3580834,221.58876 81.1785389,219.817791 C82.5300891,221.422731 84.1298833,222.363558 86.0055041,222.695615 C89.8946589,223.359728 93.3424912,222.667943 96.2386703,220.703275 C98.9693535,218.849293 100.238156,216.082155 99.9899118,212.678575 C99.8795812,211.876105 99.576172,211.239663 99.327928,210.686235 Z M94.5009628,218.157508 C92.2391849,219.707106 89.5912497,220.20519 86.4744093,219.679434 C85.2331896,219.458063 84.1298833,218.738607 83.1920729,217.493395 C83.026577,217.299695 82.8886637,217.078324 82.7231677,216.884625 L82.5025065,216.607911 C82.0060186,215.943798 81.0682082,215.833112 80.4062244,216.331197 C80.3786418,216.358868 80.3510591,216.38654 80.3234765,216.38654 C80.2131458,216.469554 79.9924846,216.607911 79.799406,216.856953 C78.4478557,218.60025 76.2964083,219.734777 73.9242997,219.956148 C71.5246085,220.177519 69.1800825,219.458063 67.4975403,217.936137 C66.3666514,216.939967 65.7322502,215.777769 65.5391716,214.449543 C65.5667543,214.477214 65.5943369,214.477214 65.6219196,214.504886 C66.7252259,215.168999 68.0767762,215.252013 69.4834917,214.7816 C70.5867981,214.3942 71.6073564,213.757758 72.2693402,213.342688 C73.7312211,212.374189 74.9172754,211.737748 76.241243,211.654733 C77.8686199,211.544048 78.5581863,211.79309 80.1303979,212.955288 C80.5717204,213.287345 81.1785389,213.342688 81.6750267,213.093645 C82.0611839,212.927617 82.4197585,212.733917 82.7507504,212.540218 C83.4127342,212.18049 84.0471353,211.848433 84.6263712,211.710076 C86.253748,211.267334 87.8535422,211.710076 89.9774069,213.148988 C91.1082959,213.923787 92.0461062,214.3942 92.956334,214.726257 C94.3354669,215.19667 95.6318518,215.141328 96.7351582,214.532557 C96.7903235,214.504886 96.8454888,214.477214 96.8730714,214.449543 C96.6799928,215.971469 95.8800958,217.216681 94.5009628,218.157508 Z M81.3440348,181.492927 L79.5235794,193.336279 C79.4959967,193.446964 79.4408314,193.502307 79.3029181,193.529978 L77.372132,193.834364 C77.2066361,193.862035 77.1514708,193.779021 77.1790534,193.612993 L78.9995089,181.769641 C79.0270915,181.658956 79.0822568,181.603613 79.2201701,181.575941 L81.1509562,181.271556 C81.3164522,181.271556 81.3716175,181.326899 81.3440348,181.492927 Z M75.9929991,191.620653 C76.0481644,191.675996 76.1309124,191.75901 76.1860777,191.814353 C76.2136604,191.925038 76.1309124,191.95271 76.0757471,192.008052 C75.7171725,192.36778 75.358598,192.727508 75.0276061,193.087236 C74.9172754,193.225593 74.8345275,193.197922 74.6966142,193.087236 C73.0692373,191.786681 71.4142778,190.486126 69.7593183,189.185571 C69.621405,189.074886 69.6489877,188.991872 69.7317357,188.853515 C70.91779,187.137889 72.0762616,185.422263 73.2623159,183.678966 C73.3726466,183.54061 73.4278119,183.512938 73.5933078,183.595952 C74.0070477,183.844995 74.4207876,184.066366 74.8621101,184.287737 C75.0827714,184.398422 75.0551887,184.481436 74.9448581,184.675136 C74.2828743,185.865006 73.6484731,187.054875 72.9589067,188.217073 C72.7934107,188.493787 72.8485761,188.632144 73.0692373,188.825843 C74.0897957,189.76667 75.0276061,190.707497 75.9929991,191.620653 Z M88.7361872,186.36309 C87.5501329,188.078716 86.3916613,189.794342 85.2331896,191.482296 C85.122859,191.648324 85.040111,191.675996 84.8746151,191.56531 C84.4884579,191.343939 84.074718,191.122568 83.6885608,190.901197 C83.4678995,190.790512 83.4403168,190.707497 83.5506475,190.486126 C84.2126313,189.296257 84.8746151,188.106388 85.5365989,186.888847 C85.5917642,186.805833 85.6745122,186.722818 85.6469295,186.584462 C85.5917642,186.529119 85.5365989,186.446105 85.4538509,186.390762 C84.4608752,185.449935 83.4954822,184.481436 82.5025065,183.568281 C82.3370105,183.402253 82.3094279,183.291567 82.4749238,183.125539 C82.8059157,182.821154 83.1093249,182.489097 83.4403168,182.15704 C83.5782301,182.018684 83.6609781,181.991012 83.8264741,182.129369 C85.4538509,183.429924 87.0536451,184.702808 88.6810219,186.003362 C88.8189352,186.114048 88.8465179,186.197062 88.7361872,186.36309 Z M179.124559,214.975299 C179.152141,215.030642 179.152141,215.058313 179.152141,215.085985 C179.152141,215.085985 179.124559,215.113656 179.069393,215.113656 L176.062883,215.113656 C175.92497,215.113656 175.897388,215.058313 175.869805,215.002971 L171.815154,208.417182 C171.787571,208.334168 171.704823,208.306496 171.622075,208.306496 C171.56691,208.306496 171.511745,208.334168 171.428997,208.417182 L169.994699,210.215822 L169.967116,210.243493 C169.939533,210.326507 169.911951,210.38185 169.911951,210.437193 L169.911951,215.002971 C169.911951,215.030642 169.911951,215.085985 169.884368,215.113656 C169.856785,215.141328 169.829203,215.141328 169.774037,215.141328 L167.09852,215.141328 C167.070937,215.141328 167.015772,215.141328 166.988189,215.113656 C166.960606,215.085985 166.960606,215.058313 166.960606,215.002971 L166.960606,199.506997 C166.960606,199.479325 166.960606,199.423983 166.988189,199.396311 C167.015772,199.36864 167.043354,199.36864 167.09852,199.36864 L169.774037,199.36864 C169.80162,199.36864 169.856785,199.36864 169.856785,199.396311 C169.884368,199.423983 169.884368,199.451654 169.884368,199.506997 L169.884368,205.871415 C169.884368,206.009772 169.967116,206.065114 170.022281,206.092786 C170.077447,206.092786 170.160195,206.120457 170.242943,206.009772 L175.51123,199.423983 C175.566396,199.340969 175.649144,199.313297 175.759474,199.313297 L178.765984,199.313297 C178.848732,199.313297 178.876315,199.340969 178.876315,199.340969 C178.876315,199.36864 178.848732,199.423983 178.848732,199.451654 L173.74594,205.9821 C173.63561,206.120457 173.690775,206.258814 173.718358,206.286485 L179.124559,214.975299 Z M190.543779,207.116627 C190.461031,207.061284 190.405866,207.005941 190.405866,206.922927 C190.405866,206.839913 190.461031,206.78457 190.543779,206.729227 C191.812581,206.092786 192.4194,205.068945 192.4194,203.57469 C192.4194,200.696866 190.681692,199.313297 187.151112,199.313297 L181.413919,199.313297 C181.386337,199.313297 181.331171,199.313297 181.303589,199.340969 C181.276006,199.36864 181.276006,199.396311 181.276006,199.451654 L181.276006,214.947628 C181.276006,214.975299 181.276006,215.030642 181.303589,215.058313 C181.331171,215.085985 181.358754,215.085985 181.413919,215.085985 L187.316608,215.085985 C188.916402,215.085985 190.212787,214.726257 191.17818,213.97913 C192.143573,213.259674 192.640061,212.152818 192.640061,210.741578 C192.640061,209.025952 191.950495,207.836083 190.543779,207.116627 Z M184.199768,202.052764 C184.199768,201.886736 184.310098,201.803722 184.448012,201.803722 L187.123529,201.803722 C187.868261,201.803722 188.47508,201.997421 188.88882,202.357149 C189.302559,202.716877 189.523221,203.242633 189.523221,203.879075 C189.523221,204.487846 189.302559,204.98593 188.88882,205.37333 C188.47508,205.733058 187.868261,205.899086 187.123529,205.899086 L184.448012,205.899086 C184.282516,205.899086 184.199768,205.788401 184.199768,205.650044 L184.199768,202.052764 Z M189.054316,211.98679 C188.640576,212.374189 188.06134,212.567889 187.316608,212.567889 L184.448012,212.567889 C184.282516,212.567889 184.199768,212.457204 184.199768,212.318847 L184.199768,208.500196 C184.199768,208.334168 184.310098,208.251153 184.448012,208.251153 L187.289025,208.251153 C188.033757,208.251153 188.640576,208.444853 189.054316,208.832253 C189.468055,209.219652 189.688717,209.745408 189.688717,210.409521 C189.688717,211.073634 189.468055,211.599391 189.054316,211.98679 Z M168.505235,187.580631 L165.829717,187.580631 C165.802135,187.580631 165.746969,187.580631 165.719387,187.55296 C165.691804,187.525288 165.691804,187.497617 165.691804,187.442274 L165.691804,171.946301 C165.691804,171.918629 165.691804,171.863286 165.719387,171.863286 C165.746969,171.835615 165.774552,171.835615 165.829717,171.835615 L168.422487,171.835615 C168.5604,171.835615 168.587983,171.890958 168.615566,171.946301 L174.518255,181.714298 C174.601003,181.852655 174.711333,181.852655 174.766499,181.824984 C174.821664,181.824984 174.904412,181.769641 174.904412,181.575941 L174.876829,171.946301 C174.876829,171.918629 174.876829,171.863286 174.904412,171.863286 C174.931994,171.835615 174.959577,171.835615 175.014742,171.835615 L177.69026,171.835615 C177.717843,171.835615 177.773008,171.835615 177.773008,171.863286 C177.800591,171.890958 177.800591,171.918629 177.800591,171.973972 L177.800591,187.469946 C177.800591,187.497617 177.800591,187.55296 177.773008,187.580631 C177.745426,187.608303 177.717843,187.608303 177.662678,187.608303 L175.069908,187.608303 C174.931994,187.608303 174.904412,187.55296 174.876829,187.497617 L168.97414,177.646605 C168.918975,177.53592 168.836227,177.53592 168.781062,177.53592 C168.753479,177.53592 168.753479,177.53592 168.725896,177.53592 C168.670731,177.53592 168.587983,177.591262 168.587983,177.784962 L168.643148,187.469946 C168.643148,187.497617 168.643148,187.55296 168.615566,187.580631 C168.587983,187.608303 168.532818,187.580631 168.505235,187.580631 Z M204.941927,187.580631 L194.377769,187.580631 C194.350186,187.580631 194.295021,187.580631 194.267438,187.55296 C194.239855,187.525288 194.239855,187.497617 194.239855,187.442274 L194.239855,171.946301 C194.239855,171.918629 194.239855,171.863286 194.267438,171.835615 C194.295021,171.807944 194.322603,171.807944 194.377769,171.807944 L204.941927,171.807944 C204.969509,171.807944 205.024675,171.807944 205.024675,171.835615 C205.052257,171.863286 205.052257,171.890958 205.052257,171.946301 L205.052257,174.160011 C205.052257,174.187682 205.052257,174.243025 205.024675,174.243025 C204.997092,174.270697 204.969509,174.270697 204.914344,174.270697 L197.411861,174.270697 C197.246365,174.270697 197.163617,174.381382 197.163617,174.519739 L197.163617,178.061676 C197.163617,178.227704 197.273948,178.310718 197.411861,178.310718 L202.321574,178.310718 C202.349157,178.310718 202.404322,178.310718 202.431905,178.33839 C202.459487,178.366061 202.459487,178.393732 202.459487,178.421404 L202.459487,180.635114 C202.459487,180.662786 202.459487,180.718129 202.431905,180.7458 C202.404322,180.773471 202.37674,180.773471 202.321574,180.773471 L197.411861,180.773471 C197.246365,180.773471 197.163617,180.884157 197.163617,181.022514 L197.163617,184.730479 C197.163617,184.896507 197.273948,184.979521 197.411861,184.979521 L204.914344,184.979521 C204.941927,184.979521 204.997092,184.979521 204.997092,185.007193 C205.024675,185.034864 205.024675,185.062536 205.024675,185.117878 L205.024675,187.331589 C205.024675,187.35926 205.024675,187.386932 204.997092,187.442274 C205.024675,187.55296 204.997092,187.580631 204.941927,187.580631 Z M218.236768,199.839053 C217.354123,199.36864 216.305982,199.119597 215.14751,199.119597 C213.989039,199.119597 212.940898,199.36864 212.058253,199.839053 C211.175608,200.309467 210.486041,200.97358 209.989553,201.803722 C209.493065,202.661534 209.244821,203.630033 209.244821,204.736888 L209.244821,209.634723 C209.244821,210.741578 209.493065,211.737748 209.989553,212.59556 C210.486041,213.453373 211.175608,214.117486 212.058253,214.5879 C212.940898,215.058313 213.989039,215.307356 215.14751,215.307356 C216.333565,215.307356 217.354123,215.058313 218.236768,214.5879 C219.119413,214.117486 219.80898,213.453373 220.305467,212.59556 C220.801955,211.737748 221.050199,210.741578 221.050199,209.607051 L221.050199,204.709217 C221.050199,203.602361 220.801955,202.633863 220.305467,201.77605 C219.80898,200.97358 219.119413,200.309467 218.236768,199.839053 Z M218.098855,209.773079 C218.098855,210.686235 217.823028,211.433362 217.271375,212.014461 C216.719722,212.567889 216.002573,212.872274 215.14751,212.872274 C214.264865,212.872274 213.547716,212.59556 213.023646,212.014461 C212.499575,211.461034 212.223749,210.713906 212.223749,209.773079 L212.223749,204.736888 C212.223749,203.823732 212.499575,203.076605 213.023646,202.495506 C213.547716,201.914407 214.264865,201.637693 215.14751,201.637693 C216.030155,201.637693 216.747304,201.914407 217.298958,202.495506 C217.823028,203.048934 218.098855,203.823732 218.098855,204.736888 L218.098855,209.773079 L218.098855,209.773079 Z M153.969174,187.110218 C154.851819,187.580631 155.89996,187.829674 157.058432,187.829674 C158.244486,187.829674 159.265045,187.580631 160.14769,187.110218 C161.030335,186.639804 161.719901,185.975691 162.216389,185.117878 C162.712877,184.260065 162.961121,183.263896 162.961121,182.129369 L162.961121,177.231534 C162.961121,176.124679 162.712877,175.156181 162.216389,174.298368 C161.719901,173.440555 161.030335,172.776442 160.14769,172.3337 C159.265045,171.863286 158.216904,171.614244 157.058432,171.614244 C155.89996,171.614244 154.851819,171.863286 153.969174,172.3337 C153.086529,172.804113 152.396963,173.468227 151.900475,174.298368 C151.403987,175.156181 151.155743,176.124679 151.155743,177.231534 L151.155743,182.129369 C151.155743,183.236224 151.403987,184.232394 151.900475,185.090207 C152.396963,185.94802 153.086529,186.639804 153.969174,187.110218 Z M154.107087,177.203863 C154.107087,176.290707 154.382914,175.54358 154.906985,174.962481 C155.431055,174.381382 156.148204,174.104668 157.030849,174.104668 C157.913494,174.104668 158.630643,174.381382 159.182297,174.962481 C159.706367,175.515909 159.982194,176.290707 159.982194,177.203863 L159.982194,182.240055 C159.982194,183.15321 159.706367,183.900337 159.154714,184.481436 C158.603061,185.034864 157.885912,185.339249 157.030849,185.339249 C156.148204,185.339249 155.431055,185.062536 154.906985,184.481436 C154.382914,183.928009 154.107087,183.180882 154.107087,182.240055 L154.107087,177.203863 Z M204.059282,199.839053 C203.176637,199.36864 202.128496,199.119597 200.970024,199.119597 C199.811552,199.119597 198.763411,199.36864 197.880766,199.839053 C196.998121,200.309467 196.308555,200.97358 195.812067,201.803722 C195.315579,202.661534 195.067335,203.630033 195.067335,204.736888 L195.067335,209.634723 C195.067335,210.741578 195.315579,211.737748 195.812067,212.59556 C196.308555,213.453373 196.998121,214.117486 197.880766,214.5879 C198.763411,215.058313 199.811552,215.307356 200.970024,215.307356 C202.156078,215.307356 203.176637,215.058313 204.059282,214.5879 C204.941927,214.117486 205.631493,213.453373 206.127981,212.59556 C206.624469,211.737748 206.872713,210.741578 206.872713,209.607051 L206.872713,204.709217 C206.872713,203.602361 206.624469,202.633863 206.127981,201.77605 C205.631493,200.97358 204.941927,200.309467 204.059282,199.839053 Z M203.893786,209.773079 C203.893786,210.686235 203.617959,211.433362 203.066306,212.014461 C202.514653,212.567889 201.797504,212.872274 200.942441,212.872274 C200.059796,212.872274 199.342647,212.59556 198.818577,212.014461 C198.294506,211.461034 198.018679,210.713906 198.018679,209.773079 L198.018679,204.736888 C198.018679,203.823732 198.294506,203.076605 198.818577,202.495506 C199.342647,201.914407 200.059796,201.637693 200.942441,201.637693 C201.825086,201.637693 202.542235,201.914407 203.093889,202.495506 C203.617959,203.048934 203.893786,203.823732 203.893786,204.736888 L203.893786,209.773079 L203.893786,209.773079 Z M184.254933,174.326039 L180.28303,174.326039 C180.255448,174.326039 180.200282,174.326039 180.1727,174.298368 C180.145117,174.270697 180.145117,174.243025 180.145117,174.215354 L180.145117,171.973972 C180.145117,171.946301 180.145117,171.890958 180.1727,171.863286 C180.200282,171.835615 180.227865,171.835615 180.28303,171.835615 L191.812581,171.835615 C191.840164,171.835615 191.895329,171.835615 191.895329,171.863286 C191.922912,171.890958 191.922912,171.918629 191.922912,171.973972 L191.922912,174.215354 C191.922912,174.243025 191.922912,174.270697 191.895329,174.326039 C191.867747,174.353711 191.840164,174.353711 191.812581,174.353711 L187.730348,174.353711 C187.564852,174.353711 187.482104,174.464396 187.482104,174.602753 L187.482104,187.469946 C187.482104,187.497617 187.482104,187.55296 187.454521,187.580631 C187.426939,187.608303 187.399356,187.608303 187.344191,187.608303 L184.668673,187.608303 C184.64109,187.608303 184.585925,187.608303 184.558342,187.580631 C184.53076,187.55296 184.53076,187.525288 184.53076,187.497617 L184.53076,174.575082 C184.503177,174.409054 184.392846,174.326039 184.254933,174.326039 Z M161.416492,199.839053 C160.533847,199.36864 159.485706,199.119597 158.327234,199.119597 C157.168763,199.119597 156.120622,199.36864 155.237976,199.839053 C154.355331,200.309467 153.665765,200.97358 153.169277,201.803722 C152.672789,202.661534 152.424545,203.630033 152.424545,204.736888 L152.424545,209.634723 C152.424545,210.741578 152.672789,211.737748 153.169277,212.59556 C153.665765,213.453373 154.355331,214.117486 155.237976,214.5879 C156.120622,215.058313 157.168763,215.307356 158.327234,215.307356 C159.513288,215.307356 160.533847,215.058313 161.416492,214.5879 C162.299137,214.117486 162.988703,213.453373 163.485191,212.59556 C163.981679,211.737748 164.229923,210.741578 164.229923,209.607051 L164.229923,204.709217 C164.229923,203.602361 163.981679,202.633863 163.485191,201.77605 C162.961121,200.97358 162.271554,200.309467 161.416492,199.839053 Z M161.250996,209.773079 C161.250996,210.686235 160.975169,211.433362 160.423516,212.014461 C159.871863,212.567889 159.154714,212.872274 158.299652,212.872274 C157.417006,212.872274 156.699857,212.59556 156.175787,212.014461 C155.651716,211.461034 155.37589,210.713906 155.37589,209.773079 L155.37589,204.736888 C155.37589,203.823732 155.651716,203.076605 156.175787,202.495506 C156.699857,201.914407 157.417006,201.637693 158.299652,201.637693 C159.182297,201.637693 159.899446,201.914407 160.451099,202.495506 C160.975169,203.048934 161.250996,203.823732 161.250996,204.736888 L161.250996,209.773079 Z M231.448861,186.971861 C232.276341,186.584462 232.938325,186.031034 233.379647,185.311578 C233.848553,184.592122 234.069214,183.761981 234.069214,182.848825 L234.069214,176.512079 C234.069214,175.571252 233.848553,174.74111 233.379647,174.049326 C232.910742,173.32987 232.276341,172.776442 231.448861,172.389043 C230.621382,172.001643 229.628406,171.807944 228.497517,171.807944 L222.787907,171.807944 C222.760324,171.807944 222.705159,171.807944 222.677576,171.835615 C222.649993,171.863286 222.649993,171.890958 222.649993,171.918629 L222.649993,187.414603 C222.649993,187.442274 222.649993,187.497617 222.677576,187.525288 C222.705159,187.55296 222.732741,187.55296 222.787907,187.55296 L228.497517,187.55296 C229.628406,187.580631 230.621382,187.386932 231.448861,186.971861 Z M225.601338,184.813493 L225.601338,174.54741 C225.601338,174.381382 225.711668,174.298368 225.849582,174.298368 L228.580265,174.298368 C229.352579,174.298368 229.959398,174.54741 230.428303,175.045495 C230.897208,175.54358 231.117869,176.207693 231.117869,177.037835 L231.117869,182.323069 C231.090287,183.15321 230.869626,183.817323 230.40072,184.315408 C229.931815,184.813493 229.324997,185.062536 228.607848,185.062536 L225.849582,185.062536 C225.711668,185.062536 225.601338,184.979521 225.601338,184.813493 Z M236,215.058313 C236,215.058313 235.972417,215.085985 235.917252,215.085985 L232.910742,215.085985 C232.772829,215.085985 232.745246,215.030642 232.717664,214.975299 L228.663013,208.38951 C228.63543,208.306496 228.552682,208.278825 228.469934,208.278825 C228.414769,208.278825 228.332021,208.306496 228.276856,208.38951 L226.842557,210.18815 L226.814975,210.215822 C226.787392,210.298836 226.759809,210.354179 226.759809,210.409521 L226.759809,214.975299 C226.759809,215.002971 226.759809,215.058313 226.732227,215.085985 C226.704644,215.113656 226.677061,215.113656 226.621896,215.113656 L223.946378,215.113656 C223.918796,215.113656 223.86363,215.113656 223.836048,215.085985 C223.808465,215.058313 223.808465,215.030642 223.808465,214.975299 L223.808465,199.479325 C223.808465,199.451654 223.808465,199.396311 223.836048,199.36864 C223.86363,199.340969 223.891213,199.340969 223.946378,199.340969 L226.621896,199.340969 C226.649479,199.340969 226.704644,199.340969 226.704644,199.36864 C226.732227,199.396311 226.732227,199.423983 226.732227,199.479325 L226.732227,205.871415 C226.732227,206.009772 226.814975,206.065114 226.87014,206.092786 C226.925305,206.092786 227.008053,206.120457 227.090801,206.009772 L232.359089,199.423983 C232.414254,199.340969 232.497002,199.313297 232.607333,199.313297 L235.613843,199.313297 C235.696591,199.313297 235.724173,199.340969 235.724173,199.340969 C235.724173,199.36864 235.696591,199.423983 235.696591,199.451654 L230.621382,205.9821 C230.511051,206.148128 230.566216,206.258814 230.593799,206.286485 L235.972417,214.975299 C236,215.030642 236,215.058313 236,215.058313 Z M124.703974,187.525288 C124.676391,187.497617 124.676391,187.469946 124.676391,187.414603 L124.676391,171.918629 C124.676391,171.890958 124.676391,171.835615 124.703974,171.807944 C124.731556,171.780272 124.759139,171.780272 124.814304,171.780272 L135.35088,171.780272 C135.378462,171.780272 135.433628,171.780272 135.433628,171.807944 C135.46121,171.835615 135.46121,171.863286 135.46121,171.918629 L135.46121,174.13234 C135.46121,174.160011 135.46121,174.215354 135.433628,174.215354 C135.406045,174.243025 135.378462,174.243025 135.323297,174.243025 L127.848397,174.243025 C127.682901,174.243025 127.600153,174.353711 127.600153,174.492068 L127.600153,178.034005 C127.600153,178.200033 127.710483,178.283047 127.848397,178.283047 L132.75811,178.283047 C132.785693,178.283047 132.840858,178.283047 132.868441,178.310718 C132.896023,178.33839 132.896023,178.366061 132.896023,178.393732 L132.896023,180.607443 C132.896023,180.635114 132.896023,180.690457 132.868441,180.718129 C132.840858,180.7458 132.813275,180.7458 132.75811,180.7458 L127.848397,180.7458 C127.682901,180.7458 127.600153,180.856485 127.600153,180.994842 L127.600153,187.331589 C127.600153,187.35926 127.600153,187.414603 127.57257,187.442274 C127.544987,187.469946 127.517405,187.469946 127.46224,187.469946 L124.786722,187.469946 C124.759139,187.580631 124.731556,187.55296 124.703974,187.525288 Z M127.296744,204.460174 L127.296744,209.994451 C127.296744,210.824592 127.57257,211.516377 128.069058,212.014461 C128.593129,212.540218 129.282695,212.78926 130.137757,212.78926 C130.99282,212.78926 131.682386,212.540218 132.178874,212.014461 C132.702945,211.488705 132.951189,210.824592 132.951189,209.994451 C132.951189,209.911436 132.951189,209.883765 133.089102,209.883765 L135.76462,209.994451 C135.819785,209.994451 135.847368,209.994451 135.87495,210.022122 C135.902533,210.049793 135.902533,210.077465 135.902533,210.077465 C135.902533,211.101306 135.654289,212.014461 135.185384,212.78926 C134.716479,213.564059 134.026912,214.200501 133.17185,214.615571 C132.316787,215.058313 131.296229,215.279684 130.137757,215.279684 C128.979286,215.279684 127.931145,215.058313 127.076082,214.5879 C126.193437,214.145158 125.531453,213.481045 125.062548,212.678575 C124.593643,211.876105 124.345399,210.907606 124.345399,209.828422 L124.345399,204.543188 C124.345399,203.464004 124.593643,202.523177 125.062548,201.693036 C125.531453,200.890566 126.22102,200.254124 127.076082,199.811382 C127.958727,199.36864 128.979286,199.147269 130.137757,199.147269 C131.296229,199.147269 132.316787,199.36864 133.17185,199.783711 C134.026912,200.198781 134.716479,200.807552 135.185384,201.58235 C135.654289,202.357149 135.902533,203.270305 135.902533,204.294146 C135.902533,204.321817 135.902533,204.37716 135.76462,204.404831 L133.089102,204.57086 L133.033937,204.57086 C132.978771,204.57086 132.951189,204.57086 132.951189,204.460174 C132.951189,203.602361 132.675362,202.938248 132.178874,202.412492 C131.654804,201.886736 130.965237,201.637693 130.137757,201.637693 C129.282695,201.637693 128.593129,201.886736 128.069058,202.412492 C127.544987,202.910577 127.296744,203.602361 127.296744,204.460174 Z M147.211423,199.839053 L147.211423,199.839053 C146.328778,199.36864 145.280637,199.119597 144.122165,199.119597 C142.963693,199.119597 141.915552,199.36864 141.032907,199.839053 C140.150262,200.309467 139.460696,200.97358 138.964208,201.803722 C138.46772,202.661534 138.219476,203.630033 138.219476,204.736888 L138.219476,209.634723 C138.219476,210.741578 138.46772,211.737748 138.964208,212.59556 C139.460696,213.453373 140.150262,214.117486 141.032907,214.5879 C141.915552,215.058313 142.963693,215.307356 144.122165,215.307356 C145.308219,215.307356 146.328778,215.058313 147.211423,214.5879 C148.094068,214.117486 148.783634,213.453373 149.280122,212.59556 C149.77661,211.737748 150.024854,210.741578 150.024854,209.607051 L150.024854,204.709217 C150.024854,203.602361 149.77661,202.633863 149.280122,201.77605 C148.783634,200.97358 148.094068,200.309467 147.211423,199.839053 Z M147.045927,209.773079 C147.045927,210.686235 146.7701,211.433362 146.218447,212.014461 C145.666794,212.567889 144.949645,212.872274 144.094582,212.872274 C143.211937,212.872274 142.494788,212.59556 141.970718,212.014461 C141.446647,211.461034 141.170821,210.713906 141.170821,209.773079 L141.170821,204.736888 C141.170821,203.823732 141.446647,203.076605 141.970718,202.495506 C142.494788,201.914407 143.211937,201.637693 144.094582,201.637693 C144.977228,201.637693 145.694377,201.914407 146.24603,202.495506 C146.7701,203.048934 147.045927,203.823732 147.045927,204.736888 L147.045927,209.773079 Z M140.370924,187.525288 C140.398506,187.497617 140.398506,187.469946 140.398506,187.414603 L140.398506,181.160871 C140.398506,180.994842 140.508837,180.911828 140.64675,180.911828 L142.770615,180.911828 C142.880946,180.911828 142.963693,180.967171 143.018859,181.077857 L145.887455,187.442274 C145.915038,187.525288 145.997786,187.580631 146.080534,187.580631 L148.893965,187.580631 C149.004296,187.580631 149.004296,187.55296 149.004296,187.525288 C149.004296,187.525288 149.004296,187.497617 148.976713,187.442274 L145.887455,180.967171 C145.859873,180.856485 145.859873,180.801143 145.887455,180.7458 C145.915038,180.690457 145.942621,180.635114 146.025369,180.607443 C146.935596,180.303058 147.625163,179.804973 148.121651,179.085517 C148.618138,178.366061 148.866382,177.508248 148.866382,176.484407 C148.866382,175.54358 148.673304,174.713439 148.287147,173.993983 C147.900989,173.274527 147.349336,172.748771 146.632187,172.361371 C145.915038,171.973972 145.059976,171.780272 144.122165,171.780272 L137.585075,171.780272 C137.557492,171.780272 137.502327,171.780272 137.474744,171.807944 C137.447162,171.835615 137.447162,171.863286 137.447162,171.890958 L137.447162,187.386932 C137.447162,187.414603 137.447162,187.469946 137.474744,187.497617 C137.502327,187.525288 137.52991,187.525288 137.585075,187.525288 L140.260593,187.525288 C140.315758,187.580631 140.343341,187.55296 140.370924,187.525288 Z M140.398506,174.54741 C140.398506,174.381382 140.508837,174.298368 140.64675,174.298368 L143.65326,174.298368 C144.315244,174.298368 144.89448,174.519739 145.308219,174.93481 C145.749542,175.34988 145.942621,175.875637 145.942621,176.53975 C145.942621,177.176192 145.721959,177.729619 145.280637,178.117019 C144.839314,178.532089 144.287661,178.725789 143.625677,178.725789 L140.619168,178.725789 C140.453672,178.725789 140.370924,178.615104 140.370924,178.476747 L140.370924,174.54741 L140.398506,174.54741 Z M210.403293,187.580631 L207.727775,187.580631 C207.700193,187.580631 207.645027,187.580631 207.617445,187.55296 C207.589862,187.525288 207.589862,187.497617 207.589862,187.442274 L207.589862,171.946301 C207.589862,171.918629 207.589862,171.863286 207.617445,171.863286 C207.645027,171.835615 207.67261,171.835615 207.727775,171.835615 L210.320545,171.835615 C210.458458,171.835615 210.486041,171.890958 210.513624,171.946301 L216.416313,181.714298 C216.499061,181.852655 216.609391,181.852655 216.664557,181.824984 C216.719722,181.824984 216.80247,181.769641 216.80247,181.575941 L216.774887,171.946301 C216.774887,171.918629 216.774887,171.863286 216.80247,171.835615 C216.830052,171.807944 216.857635,171.807944 216.9128,171.807944 L219.588318,171.807944 C219.615901,171.807944 219.671066,171.807944 219.671066,171.835615 C219.698649,171.863286 219.698649,171.890958 219.698649,171.946301 L219.698649,187.442274 C219.698649,187.469946 219.698649,187.525288 219.671066,187.55296 C219.643484,187.580631 219.615901,187.580631 219.560736,187.580631 L216.967966,187.580631 C216.830052,187.580631 216.80247,187.525288 216.774887,187.469946 L210.899781,177.646605 C210.844616,177.53592 210.761868,177.53592 210.706702,177.53592 C210.67912,177.53592 210.67912,177.53592 210.651537,177.53592 C210.596372,177.53592 210.513624,177.591262 210.513624,177.784962 L210.568789,187.469946 C210.568789,187.497617 210.568789,187.55296 210.541206,187.580631 C210.486041,187.55296 210.458458,187.580631 210.403293,187.580631 Z" id="Shape"></path>
        </g>
    </g>
</svg>