<?xml version="1.0" encoding="UTF-8"?>
<svg width="789px" height="269px" viewBox="0 0 789 269" version="1.1" xmlns="http://www.w3.org/2000/svg" xmlns:xlink="http://www.w3.org/1999/xlink">
    <title>Group</title>
    <g id="UX---F1---Mobile" stroke="none" stroke-width="1" fill="none" fill-rule="evenodd">
        <g id="Group" transform="translate(0.000000, 0.475697)" fill="#FFFFFF" fill-rule="nonzero">
            <path d="M268.693273,23.7243031 C256.593273,9.42430307 241.093273,1.62430307 222.493273,0.224303072 C203.693273,-1.17569693 186.593273,4.02430307 171.093273,14.5243031 C166.693273,17.5243031 162.593273,21.0243031 158.193273,24.3243031 C153.193273,20.4243031 147.593273,17.4243031 141.293273,15.5243031 C124.593273,10.7243031 108.693273,13.2243031 93.9932731,21.9243031 C73.6932731,33.9243031 61.8932731,51.9243031 59.0932731,75.6243031 C58.8932731,77.2243031 58.2932731,77.7243031 56.7932731,77.9243031 C49.8932731,78.8243031 43.2932731,80.8243031 36.9932731,83.9243031 C20.3932731,91.9243031 7.89327311,103.824303 2.29327311,121.724303 C-2.20672689,136.224303 -0.106726892,149.924303 8.79327311,162.424303 C15.7932731,172.224303 25.3932731,178.424303 36.7932731,182.024303 C53.0932731,187.124303 69.0932731,185.924303 84.8932731,179.724303 C87.3932731,178.724303 89.8932731,177.524303 92.4932731,176.324303 C92.5932731,176.824303 92.6932731,177.024303 92.6932731,177.224303 C94.4932731,184.424303 96.0932731,191.624303 98.0932731,198.724303 C99.3932731,203.224303 103.793273,204.024303 107.393273,201.124303 C110.093273,198.924303 113.093273,196.824303 116.193273,195.224303 C125.893273,190.224303 136.293273,187.124303 146.793273,184.724303 C162.193273,181.124303 177.693273,178.924303 193.593273,179.524303 C201.193273,179.824303 208.693273,180.824303 215.693273,184.024303 C220.693273,186.324303 223.793273,184.824303 224.893273,179.524303 C226.593273,171.224303 227.393273,162.924303 226.693273,154.524303 C226.593273,153.024303 226.993273,152.324303 228.393273,151.724303 C242.193273,145.924303 253.893273,137.324303 263.393273,125.724303 C279.093273,106.524303 286.393273,84.7243031 283.693273,59.8243031 C282.493273,46.3243031 277.493273,34.1243031 268.693273,23.7243031 Z M263.093273,107.824303 C254.293273,122.724303 242.093273,133.924303 226.293273,140.924303 C225.993273,141.024303 225.793273,141.124303 225.493273,141.224303 C224.393273,137.524303 223.393273,133.824303 222.193273,130.224303 C221.093273,126.824303 219.793273,123.524303 218.393273,120.224303 C217.193273,117.624303 213.893273,116.724303 211.393273,117.924303 L216.093273,168.624303 C215.993273,169.724303 215.793273,170.824303 215.693273,171.824303 C211.193273,170.924303 206.793273,169.924303 202.393273,169.324303 C192.993273,168.124303 183.493273,168.324303 174.093273,169.224303 C160.193273,170.524303 146.593273,173.124303 133.193273,177.224303 C124.493273,179.924303 115.893273,182.924303 107.993273,187.424303 C107.593273,187.624303 107.093273,187.824303 106.393273,188.224303 C105.393273,183.524303 104.493273,179.124303 103.593273,174.624303 C101.493273,164.024303 101.093273,153.424303 101.493273,142.624303 C101.593273,139.524303 99.4932731,137.124303 96.5932731,136.824303 C93.7932731,136.524303 90.9932731,138.624303 90.8932731,141.724303 C90.7932731,148.824303 90.9932731,156.024303 91.0932731,163.124303 C91.0932731,163.824303 91.2932731,164.524303 91.2932731,165.024303 C87.7932731,166.524303 84.5932731,168.124303 81.2932731,169.424303 C65.1932731,175.624303 49.0932731,176.224303 33.1932731,168.624303 C21.3932731,162.924303 13.4932731,153.924303 11.4932731,140.624303 C9.59327311,128.024303 13.9932731,117.024303 22.5932731,107.724303 C35.4932731,93.7243031 51.7932731,87.5243031 70.6932731,88.0243031 C77.1932731,88.1243031 83.3932731,89.5243031 89.2932731,92.3243031 C90.0932731,92.7243031 90.9932731,93.1243031 91.7932731,93.3243031 C94.5932731,93.9243031 97.1932731,92.3243031 97.9932731,89.6243031 C98.7932731,86.9243031 97.4932731,84.1243031 94.7932731,82.9243031 C87.2932731,79.5243031 79.4932731,77.5243031 71.2932731,77.1243031 C70.8932731,77.1243031 70.4932731,77.0243031 69.7932731,76.9243031 C70.1932731,74.2243031 70.3932731,71.5243031 71.0932731,69.0243031 C76.2932731,50.0243031 87.6932731,36.0243031 105.893273,28.2243031 C120.093273,22.2243031 134.193273,22.4243031 147.793273,30.3243031 C148.893273,30.9243031 149.793273,31.7243031 150.793273,32.4243031 C148.193273,36.2243031 145.593273,39.8243031 143.193273,43.6243031 C139.193273,50.0243031 136.093273,56.8243031 133.993273,64.0243031 C132.893273,67.6243031 134.393273,70.5243031 137.493273,71.4243031 C140.593273,72.3243031 143.193273,70.4243031 144.393273,66.9243031 C149.593273,51.2243031 158.493273,38.0243031 171.393273,27.5243031 C181.693273,19.1243031 193.393273,13.5243031 206.493273,11.6243031 C229.193273,8.42430307 248.393273,14.9243031 262.493273,33.5243031 C268.993273,42.1243031 272.393273,52.1243031 273.293273,62.8243031 C274.893273,79.0243031 271.293273,94.0243031 263.093273,107.824303 Z M229.593273,222.924303 C229.293273,222.224303 228.993273,221.524303 228.693273,220.924303 C227.793273,218.724303 225.593273,217.224303 223.293273,217.424303 C220.893273,217.624303 218.893273,219.224303 218.293273,221.624303 C217.593273,224.324303 216.493273,226.224303 214.993273,227.124303 C213.693273,227.824303 212.093273,227.824303 210.093273,227.124303 C206.993273,226.024303 203.893273,224.124303 201.893273,222.724303 C194.893273,217.924303 185.293273,212.924303 173.593273,215.924303 C170.193273,216.824303 167.293273,218.324303 164.493273,219.824303 C164.293273,219.924303 163.993273,220.124303 163.793273,220.224303 C157.493273,216.124303 152.793273,214.924303 145.293273,215.424303 C137.193273,215.924303 130.793273,219.824303 125.493273,223.324303 C123.593273,224.524303 120.793273,226.324303 117.993273,227.324303 C116.593273,227.824303 114.593273,228.224303 113.093273,227.324303 C111.893273,226.624303 110.993273,225.024303 110.693273,222.824303 C110.393273,220.624303 108.693273,218.924303 106.593273,218.324303 L105.193273,218.024303 C102.293273,217.324303 99.4932731,219.024303 98.6932731,221.824303 C98.4932731,222.624303 98.1932731,223.424303 97.8932731,224.324303 C97.0932731,226.524303 96.2932731,229.124303 96.0932731,231.924303 C95.6932731,241.724303 99.4932731,250.524303 107.093273,257.324303 C114.493273,263.824303 124.293273,267.424303 134.593273,267.424303 C135.893273,267.424303 137.293273,267.324303 138.593273,267.224303 C148.293273,266.324303 157.193273,262.324303 163.793273,255.924303 C168.693273,261.724303 174.493273,265.124303 181.293273,266.324303 C195.393273,268.724303 207.893273,266.224303 218.393273,259.124303 C228.293273,252.424303 232.893273,242.424303 231.993273,230.124303 C231.593273,227.224303 230.493273,224.924303 229.593273,222.924303 Z M212.093273,249.924303 C203.893273,255.524303 194.293273,257.324303 182.993273,255.424303 C178.493273,254.624303 174.493273,252.024303 171.093273,247.524303 C170.493273,246.824303 169.993273,246.024303 169.393273,245.324303 L168.593273,244.324303 C166.793273,241.924303 163.393273,241.524303 160.993273,243.324303 C160.893273,243.424303 160.793273,243.524303 160.693273,243.524303 C160.293273,243.824303 159.493273,244.324303 158.793273,245.224303 C153.893273,251.524303 146.093273,255.624303 137.493273,256.424303 C128.793273,257.224303 120.293273,254.624303 114.193273,249.124303 C110.093273,245.524303 107.793273,241.324303 107.093273,236.524303 C107.193273,236.624303 107.293273,236.624303 107.393273,236.724303 C111.393273,239.124303 116.293273,239.424303 121.393273,237.724303 C125.393273,236.324303 129.093273,234.024303 131.493273,232.524303 C136.793273,229.024303 141.093273,226.724303 145.893273,226.424303 C151.793273,226.024303 154.293273,226.924303 159.993273,231.124303 C161.593273,232.324303 163.793273,232.524303 165.593273,231.624303 C166.993273,231.024303 168.293273,230.324303 169.493273,229.624303 C171.893273,228.324303 174.193273,227.124303 176.293273,226.624303 C182.193273,225.024303 187.993273,226.624303 195.693273,231.824303 C199.793273,234.624303 203.193273,236.324303 206.493273,237.524303 C211.493273,239.224303 216.193273,239.024303 220.193273,236.824303 C220.393273,236.724303 220.593273,236.624303 220.693273,236.524303 C219.993273,242.024303 217.093273,246.524303 212.093273,249.924303 Z M164.393273,117.424303 L157.793273,160.224303 C157.693273,160.624303 157.493273,160.824303 156.993273,160.924303 L149.993273,162.024303 C149.393273,162.124303 149.193273,161.824303 149.293273,161.224303 L155.893273,118.424303 C155.993273,118.024303 156.193273,117.824303 156.693273,117.724303 L163.693273,116.624303 C164.293273,116.624303 164.493273,116.824303 164.393273,117.424303 Z M144.993273,154.024303 C145.193273,154.224303 145.493273,154.524303 145.693273,154.724303 C145.793273,155.124303 145.493273,155.224303 145.293273,155.424303 C143.993273,156.724303 142.693273,158.024303 141.493273,159.324303 C141.093273,159.824303 140.793273,159.724303 140.293273,159.324303 C134.393273,154.624303 128.393273,149.924303 122.393273,145.224303 C121.893273,144.824303 121.993273,144.524303 122.293273,144.024303 C126.593273,137.824303 130.793273,131.624303 135.093273,125.324303 C135.493273,124.824303 135.693273,124.724303 136.293273,125.024303 C137.793273,125.924303 139.293273,126.724303 140.893273,127.524303 C141.693273,127.924303 141.593273,128.224303 141.193273,128.924303 C138.793273,133.224303 136.493273,137.524303 133.993273,141.724303 C133.393273,142.724303 133.593273,143.224303 134.393273,143.924303 C138.093273,147.324303 141.493273,150.724303 144.993273,154.024303 Z M191.193273,135.024303 C186.893273,141.224303 182.693273,147.424303 178.493273,153.524303 C178.093273,154.124303 177.793273,154.224303 177.193273,153.824303 C175.793273,153.024303 174.293273,152.224303 172.893273,151.424303 C172.093273,151.024303 171.993273,150.724303 172.393273,149.924303 C174.793273,145.624303 177.193273,141.324303 179.593273,136.924303 C179.793273,136.624303 180.093273,136.324303 179.993273,135.824303 C179.793273,135.624303 179.593273,135.324303 179.293273,135.124303 C175.693273,131.724303 172.193273,128.224303 168.593273,124.924303 C167.993273,124.324303 167.893273,123.924303 168.493273,123.324303 C169.693273,122.224303 170.793273,121.024303 171.993273,119.824303 C172.493273,119.324303 172.793273,119.224303 173.393273,119.724303 C179.293273,124.424303 185.093273,129.024303 190.993273,133.724303 C191.493273,134.124303 191.593273,134.424303 191.193273,135.024303 Z" id="Shape"></path>
            <path d="M352.464617,135.524303 L362.5,94.0490283 L372.535383,135.524303 L385.323086,135.524303 L399,73.5243031 L386.339327,73.5243031 L378.040023,117.639688 L367.919954,73.5243031 L357.164733,73.5243031 L347.00232,117.554523 L338.660673,73.5243031 L326,73.5243031 L339.676914,135.524303 L352.464617,135.524303 Z M430.585484,136.524303 C435.8,136.524303 440.423253,135.269401 444.455242,132.759597 C448.487231,130.249793 451.586022,126.684731 453.751613,122.06441 C455.917204,117.444089 457,112.067975 457,105.936068 L457,105.936068 L457,103.155319 C457,97.0519323 455.895833,91.6686881 453.6875,87.0055865 C451.479167,82.3424849 448.359005,78.7631623 444.327016,76.2676186 C440.295027,73.7720749 435.686022,72.5243031 430.5,72.5243031 C425.313978,72.5243031 420.704973,73.7720749 416.672984,76.2676186 C412.640995,78.7631623 409.520833,82.3424849 407.3125,87.0055865 C405.104167,91.6686881 404,97.0661926 404,103.1981 L404,103.1981 L404,106.278314 C404.028495,112.267619 405.154032,117.565301 407.376613,122.171362 C409.599194,126.777423 412.733602,130.321095 416.779839,132.802378 C420.826075,135.283661 425.427957,136.524303 430.585484,136.524303 Z M431.585443,124.524303 C427.199367,124.524303 423.838608,122.80574 421.503165,119.368614 C419.167722,115.931489 418,111.097157 418,104.86562 L418,104.86562 L418,101.889573 C418.028481,95.5462592 419.210443,90.7328859 421.545886,87.4494528 C423.881329,84.1660196 427.199367,82.5243031 431.5,82.5243031 C435.829114,82.5243031 439.161392,84.1869777 441.496835,87.512327 C443.832278,90.8376763 445,95.6999518 445,102.099153 L445,102.099153 L445,105.075201 C444.971519,111.418515 443.803797,116.24586 441.496835,119.557237 C439.189873,122.868614 435.886076,124.524303 431.585443,124.524303 Z M506,135.524303 L506,125.26194 L478.80683,125.26194 L478.80683,73.5243031 L466,73.5243031 L466,135.524303 L506,135.524303 Z M537.585484,136.524303 C542.8,136.524303 547.423253,135.269401 551.455242,132.759597 C555.487231,130.249793 558.586022,126.684731 560.751613,122.06441 C562.917204,117.444089 564,112.067975 564,105.936068 L564,105.936068 L564,103.155319 C564,97.0519323 562.895833,91.6686881 560.6875,87.0055865 C558.479167,82.3424849 555.359005,78.7631623 551.327016,76.2676186 C547.295027,73.7720749 542.686022,72.5243031 537.5,72.5243031 C532.313978,72.5243031 527.704973,73.7720749 523.672984,76.2676186 C519.640995,78.7631623 516.520833,82.3424849 514.3125,87.0055865 C512.104167,91.6686881 511,97.0661926 511,103.1981 L511,103.1981 L511,106.278314 C511.028495,112.267619 512.154032,117.565301 514.376613,122.171362 C516.599194,126.777423 519.733602,130.321095 523.779839,132.802378 C527.826075,135.283661 532.427957,136.524303 537.585484,136.524303 Z M538.585443,124.524303 C534.199367,124.524303 530.838608,122.80574 528.503165,119.368614 C526.167722,115.931489 525,111.097157 525,104.86562 L525,104.86562 L525,101.889573 C525.028481,95.5462592 526.210443,90.7328859 528.545886,87.4494528 C530.881329,84.1660196 534.199367,82.5243031 538.5,82.5243031 C542.829114,82.5243031 546.161392,84.1869777 548.496835,87.512327 C550.832278,90.8376763 552,95.6999518 552,102.099153 L552,102.099153 L552,105.075201 C551.971519,111.418515 550.803797,116.24586 548.496835,119.557237 C546.189873,122.868614 542.886076,124.524303 538.585443,124.524303 Z M583.980922,135.524303 L596,113.80727 L608.019078,135.524303 L623,135.524303 L604.327504,104.268809 L622.527822,73.5243031 L607.718601,73.5243031 L596,94.9006767 L584.281399,73.5243031 L569.472178,73.5243031 L587.672496,104.268809 L569,135.524303 L583.980922,135.524303 Z M353.778806,238.524303 C361.099243,238.524303 366.997056,236.599169 371.472246,232.748902 C375.947435,228.898635 378.428091,223.622342 378.914214,216.920025 L378.914214,216.920025 L366.046257,216.920025 C365.760303,220.713251 364.637931,223.51539 362.679142,225.326442 C360.720353,227.137494 357.753574,228.04302 353.778806,228.04302 C349.375105,228.04302 346.150967,226.488652 344.106392,223.379918 C342.061817,220.271184 341.039529,215.351398 341.039529,208.62056 L341.039529,208.62056 L341.039529,203.914677 C341.09672,197.469045 342.190496,192.713251 344.320858,189.647298 C346.45122,186.581344 349.66106,185.048367 353.950378,185.048367 C357.896552,185.048367 360.834735,185.953893 362.764929,187.764945 C364.695122,189.575996 365.817494,192.492218 366.132044,196.513608 L366.132044,196.513608 L379,196.513608 C378.313709,189.554606 375.768713,184.149972 371.365013,180.299704 C366.961312,176.449437 361.156434,174.524303 353.950378,174.524303 C348.746005,174.524303 344.177881,175.743554 340.246005,178.182057 C336.31413,180.62056 333.29016,184.121451 331.174096,188.684731 C329.058032,193.248011 328,198.524303 328,204.513608 L328,204.513608 L328,208.321095 C328,217.704339 330.294786,225.084018 334.884357,230.460132 C339.473928,235.836246 345.772077,238.524303 353.778806,238.524303 Z M412.585484,238.524303 C417.8,238.524303 422.423253,237.269401 426.455242,234.759597 C430.487231,232.249793 433.586022,228.684731 435.751613,224.06441 C437.917204,219.444089 439,214.067975 439,207.936068 L439,207.936068 L439,205.155319 C439,199.051932 437.895833,193.668688 435.6875,189.005586 C433.479167,184.342485 430.359005,180.763162 426.327016,178.267619 C422.295027,175.772075 417.686022,174.524303 412.5,174.524303 C407.313978,174.524303 402.704973,175.772075 398.672984,178.267619 C394.640995,180.763162 391.520833,184.342485 389.3125,189.005586 C387.104167,193.668688 386,199.066193 386,205.1981 L386,205.1981 L386,208.278314 C386.028495,214.267619 387.154032,219.565301 389.376613,224.171362 C391.599194,228.777423 394.733602,232.321095 398.779839,234.802378 C402.826075,237.283661 407.427957,238.524303 412.585484,238.524303 Z M411.585443,227.524303 C407.199367,227.524303 403.838608,225.80574 401.503165,222.368614 C399.167722,218.931489 398,214.097157 398,207.86562 L398,207.86562 L398,204.889573 C398.028481,198.546259 399.210443,193.732886 401.545886,190.449453 C403.881329,187.16602 407.199367,185.524303 411.5,185.524303 C415.829114,185.524303 419.161392,187.186978 421.496835,190.512327 C423.832278,193.837676 425,198.699952 425,205.099153 L425,205.099153 L425,208.075201 C424.971519,214.418515 423.803797,219.24586 421.496835,222.557237 C419.189873,225.868614 415.886076,227.524303 411.585443,227.524303 Z M471.585484,238.524303 C476.8,238.524303 481.423253,237.269401 485.455242,234.759597 C489.487231,232.249793 492.586022,228.684731 494.751613,224.06441 C496.917204,219.444089 498,214.067975 498,207.936068 L498,207.936068 L498,205.155319 C498,199.051932 496.895833,193.668688 494.6875,189.005586 C492.479167,184.342485 489.359005,180.763162 485.327016,178.267619 C481.295027,175.772075 476.686022,174.524303 471.5,174.524303 C466.313978,174.524303 461.704973,175.772075 457.672984,178.267619 C453.640995,180.763162 450.520833,184.342485 448.3125,189.005586 C446.104167,193.668688 445,199.066193 445,205.1981 L445,205.1981 L445,208.278314 C445.028495,214.267619 446.154032,219.565301 448.376613,224.171362 C450.599194,228.777423 453.733602,232.321095 457.779839,234.802378 C461.826075,237.283661 466.427957,238.524303 471.585484,238.524303 Z M472.585443,227.524303 C468.199367,227.524303 464.838608,225.80574 462.503165,222.368614 C460.167722,218.931489 459,214.097157 459,207.86562 L459,207.86562 L459,204.889573 C459.028481,198.546259 460.210443,193.732886 462.545886,190.449453 C464.881329,187.16602 468.199367,185.524303 472.5,185.524303 C476.829114,185.524303 480.161392,187.186978 482.496835,190.512327 C484.832278,193.837676 486,198.699952 486,205.099153 L486,205.099153 L486,208.075201 C485.971519,214.418515 484.803797,219.24586 482.496835,222.557237 C480.189873,225.868614 476.886076,227.524303 472.585443,227.524303 Z M519.889638,237.524303 L519.889638,219.810017 L526.592249,212.656171 L542.661331,237.524303 L558,237.524303 L535.142376,203.075127 L557.355518,175.524303 L541.501264,175.524303 L525.561078,195.921281 L519.889638,203.628699 L519.889638,175.524303 L507,175.524303 L507,237.524303 L519.889638,237.524303 Z M587.062847,237.524303 C594.091805,237.467527 599.505237,235.906171 603.303142,232.840237 C607.101047,229.774303 609,225.260567 609,219.299028 C609,215.80727 608.085952,212.854889 606.257856,210.441885 C604.42976,208.028882 601.928527,206.424944 598.754159,205.630072 C601.531731,204.551318 603.699938,202.855118 605.25878,200.541473 C606.817622,198.227829 607.597043,195.552233 607.597043,192.514688 C607.597043,186.950585 605.655576,182.727829 601.772643,179.846418 C597.88971,176.965008 592.192853,175.524303 584.68207,175.524303 L584.68207,175.524303 L563,175.524303 L563,237.524303 L587.062847,237.524303 Z M584.888641,201.524303 L575,201.524303 L575,186.524303 L584.35412,186.524303 C588.036377,186.524303 590.731255,187.116946 592.438753,188.302232 C594.146251,189.487518 595,191.428935 595,194.126483 C595,198.949371 591.629547,201.415311 584.888641,201.524303 L584.888641,201.524303 Z M586.197095,226.524303 L575,226.524303 L575,210.524303 L586.981328,210.524303 C592.993776,210.605728 596,213.360605 596,218.788934 C596,221.204541 595.135892,223.09767 593.407676,224.468323 C591.679461,225.838977 589.275934,226.524303 586.197095,226.524303 L586.197095,226.524303 Z M643.585484,238.524303 C648.8,238.524303 653.423253,237.269401 657.455242,234.759597 C661.487231,232.249793 664.586022,228.684731 666.751613,224.06441 C668.917204,219.444089 670,214.067975 670,207.936068 L670,207.936068 L670,205.155319 C670,199.051932 668.895833,193.668688 666.6875,189.005586 C664.479167,184.342485 661.359005,180.763162 657.327016,178.267619 C653.295027,175.772075 648.686022,174.524303 643.5,174.524303 C638.313978,174.524303 633.704973,175.772075 629.672984,178.267619 C625.640995,180.763162 622.520833,184.342485 620.3125,189.005586 C618.104167,193.668688 617,199.066193 617,205.1981 L617,205.1981 L617,208.278314 C617.028495,214.267619 618.154032,219.565301 620.376613,224.171362 C622.599194,228.777423 625.733602,232.321095 629.779839,234.802378 C633.826075,237.283661 638.427957,238.524303 643.585484,238.524303 Z M643.585443,227.524303 C639.199367,227.524303 635.838608,225.80574 633.503165,222.368614 C631.167722,218.931489 630,214.097157 630,207.86562 L630,207.86562 L630,204.889573 C630.028481,198.546259 631.210443,193.732886 633.545886,190.449453 C635.881329,187.16602 639.199367,185.524303 643.5,185.524303 C647.829114,185.524303 651.161392,187.186978 653.496835,190.512327 C655.832278,193.837676 657,198.699952 657,205.099153 L657,205.099153 L657,208.075201 C656.971519,214.418515 655.803797,219.24586 653.496835,222.557237 C651.189873,225.868614 647.886076,227.524303 643.585443,227.524303 Z M702.585484,238.524303 C707.8,238.524303 712.423253,237.269401 716.455242,234.759597 C720.487231,232.249793 723.586022,228.684731 725.751613,224.06441 C727.917204,219.444089 729,214.067975 729,207.936068 L729,207.936068 L729,205.155319 C729,199.051932 727.895833,193.668688 725.6875,189.005586 C723.479167,184.342485 720.359005,180.763162 716.327016,178.267619 C712.295027,175.772075 707.686022,174.524303 702.5,174.524303 C697.313978,174.524303 692.704973,175.772075 688.672984,178.267619 C684.640995,180.763162 681.520833,184.342485 679.3125,189.005586 C677.104167,193.668688 676,199.066193 676,205.1981 L676,205.1981 L676,208.278314 C676.028495,214.267619 677.154032,219.565301 679.376613,224.171362 C681.599194,228.777423 684.733602,232.321095 688.779839,234.802378 C692.826075,237.283661 697.427957,238.524303 702.585484,238.524303 Z M703.585443,227.524303 C699.199367,227.524303 695.838608,225.80574 693.503165,222.368614 C691.167722,218.931489 690,214.097157 690,207.86562 L690,207.86562 L690,204.889573 C690.028481,198.546259 691.210443,193.732886 693.545886,190.449453 C695.881329,187.16602 699.199367,185.524303 703.5,185.524303 C707.829114,185.524303 711.161392,187.186978 713.496835,190.512327 C715.832278,193.837676 717,198.699952 717,205.099153 L717,205.099153 L717,208.075201 C716.971519,214.418515 715.803797,219.24586 713.496835,222.557237 C711.189873,225.868614 707.886076,227.524303 703.585443,227.524303 Z M750.889638,237.524303 L750.889638,219.810017 L757.592249,212.656171 L773.661331,237.524303 L789,237.524303 L766.142376,203.075127 L788.355518,175.524303 L772.501264,175.524303 L756.561078,195.921281 L750.889638,203.628699 L750.889638,175.524303 L738,175.524303 L738,237.524303 L750.889638,237.524303 Z" id="WOLOXCOOKBOOK"></path>
        </g>
    </g>
</svg>