<?xml version="1.0" encoding="utf-8"?>
<!-- Generator: Adobe Illustrator 22.1.0, SVG Export Plug-In . SVG Version: 6.00 Build 0)  -->
<svg version="1.1" id="Capa_1" xmlns="http://www.w3.org/2000/svg" xmlns:xlink="http://www.w3.org/1999/xlink" x="0px" y="0px"
	 viewBox="0 0 726.8 267.8" style="enable-background:new 0 0 726.8 267.8;" xml:space="preserve">
<style type="text/css">
	.st0{fill:#FFFFFF;}
</style>
<path class="st0" d="M268.1,24.2C256,9.9,240.5,2.1,221.9,0.7C203.1-0.7,186,4.5,170.5,15c-4.4,3-8.5,6.5-12.9,9.8
	c-5-3.9-10.6-6.9-16.9-8.8c-16.7-4.8-32.6-2.3-47.3,6.4c-20.3,12-32.1,30-34.9,53.7c-0.2,1.6-0.8,2.1-2.3,2.3
	c-6.9,0.9-13.5,2.9-19.8,6c-16.6,8-29.1,19.9-34.7,37.8c-4.5,14.5-2.4,28.2,6.5,40.7c7,9.8,16.6,16,28,19.6
	c16.3,5.1,32.3,3.9,48.1-2.3c2.5-1,5-2.2,7.6-3.4c0.1,0.5,0.2,0.7,0.2,0.9c1.8,7.2,3.4,14.4,5.4,21.5c1.3,4.5,5.7,5.3,9.3,2.4
	c2.7-2.2,5.7-4.3,8.8-5.9c9.7-5,20.1-8.1,30.6-10.5c15.4-3.6,30.9-5.8,46.8-5.2c7.6,0.3,15.1,1.3,22.1,4.5c5,2.3,8.1,0.8,9.2-4.5
	c1.7-8.3,2.5-16.6,1.8-25c-0.1-1.5,0.3-2.2,1.7-2.8c13.8-5.8,25.5-14.4,35-26c15.7-19.2,23-41,20.3-65.9
	C281.9,46.8,276.9,34.6,268.1,24.2z M262.5,108.3c-8.8,14.9-21,26.1-36.8,33.1c-0.3,0.1-0.5,0.2-0.8,0.3c-1.1-3.7-2.1-7.4-3.3-11
	c-1.1-3.4-2.4-6.7-3.8-10c-1.2-2.6-4.5-3.5-7-2.3l4.7,50.7c-0.1,1.1-0.3,2.2-0.4,3.2c-4.5-0.9-8.9-1.9-13.3-2.5
	c-9.4-1.2-18.9-1-28.3-0.1c-13.9,1.3-27.5,3.9-40.9,8c-8.7,2.7-17.3,5.7-25.2,10.2c-0.4,0.2-0.9,0.4-1.6,0.8
	c-1-4.7-1.9-9.1-2.8-13.6c-2.1-10.6-2.5-21.2-2.1-32c0.1-3.1-2-5.5-4.9-5.8c-2.8-0.3-5.6,1.8-5.7,4.9c-0.1,7.1,0.1,14.3,0.2,21.4
	c0,0.7,0.2,1.4,0.2,1.9c-3.5,1.5-6.7,3.1-10,4.4c-16.1,6.2-32.2,6.8-48.1-0.8c-11.8-5.7-19.7-14.7-21.7-28
	C9,128.5,13.4,117.5,22,108.2c12.9-14,29.2-20.2,48.1-19.7c6.5,0.1,12.7,1.5,18.6,4.3c0.8,0.4,1.7,0.8,2.5,1c2.8,0.6,5.4-1,6.2-3.7
	c0.8-2.7-0.5-5.5-3.2-6.7c-7.5-3.4-15.3-5.4-23.5-5.8c-0.4,0-0.8-0.1-1.5-0.2c0.4-2.7,0.6-5.4,1.3-7.9c5.2-19,16.6-33,34.8-40.8
	c14.2-6,28.3-5.8,41.9,2.1c1.1,0.6,2,1.4,3,2.1c-2.6,3.8-5.2,7.4-7.6,11.2c-4,6.4-7.1,13.2-9.2,20.4c-1.1,3.6,0.4,6.5,3.5,7.4
	c3.1,0.9,5.7-1,6.9-4.5c5.2-15.7,14.1-28.9,27-39.4c10.3-8.4,22-14,35.1-15.9c22.7-3.2,41.9,3.3,56,21.9c6.5,8.6,9.9,18.6,10.8,29.3
	C274.3,79.5,270.7,94.5,262.5,108.3z M229,223.4c-0.3-0.7-0.6-1.4-0.9-2c-0.9-2.2-3.1-3.7-5.4-3.5c-2.4,0.2-4.4,1.8-5,4.2
	c-0.7,2.7-1.8,4.6-3.3,5.5c-1.3,0.7-2.9,0.7-4.9,0c-3.1-1.1-6.2-3-8.2-4.4c-7-4.8-16.6-9.8-28.3-6.8c-3.4,0.9-6.3,2.4-9.1,3.9
	c-0.2,0.1-0.5,0.3-0.7,0.4c-6.3-4.1-11-5.3-18.5-4.8c-8.1,0.5-14.5,4.4-19.8,7.9c-1.9,1.2-4.7,3-7.5,4c-1.4,0.5-3.4,0.9-4.9,0
	c-1.2-0.7-2.1-2.3-2.4-4.5c-0.3-2.2-2-3.9-4.1-4.5l-1.4-0.3c-2.9-0.7-5.7,1-6.5,3.8c-0.2,0.8-0.5,1.6-0.8,2.5
	c-0.8,2.2-1.6,4.8-1.8,7.6c-0.4,9.8,3.4,18.6,11,25.4c7.4,6.5,17.2,10.1,27.5,10.1c1.3,0,2.7-0.1,4-0.2c9.7-0.9,18.6-4.9,25.2-11.3
	c4.9,5.8,10.7,9.2,17.5,10.4c14.1,2.4,26.6-0.1,37.1-7.2c9.9-6.7,14.5-16.7,13.6-29C231,227.7,229.9,225.4,229,223.4z M211.5,250.4
	c-8.2,5.6-17.8,7.4-29.1,5.5c-4.5-0.8-8.5-3.4-11.9-7.9c-0.6-0.7-1.1-1.5-1.7-2.2l-0.8-1c-1.8-2.4-5.2-2.8-7.6-1
	c-0.1,0.1-0.2,0.2-0.3,0.2c-0.4,0.3-1.2,0.8-1.9,1.7c-4.9,6.3-12.7,10.4-21.3,11.2c-8.7,0.8-17.2-1.8-23.3-7.3
	c-4.1-3.6-6.4-7.8-7.1-12.6c0.1,0.1,0.2,0.1,0.3,0.2c4,2.4,8.9,2.7,14,1c4-1.4,7.7-3.7,10.1-5.2c5.3-3.5,9.6-5.8,14.4-6.1
	c5.9-0.4,8.4,0.5,14.1,4.7c1.6,1.2,3.8,1.4,5.6,0.5c1.4-0.6,2.7-1.3,3.9-2c2.4-1.3,4.7-2.5,6.8-3c5.9-1.6,11.7,0,19.4,5.2
	c4.1,2.8,7.5,4.5,10.8,5.7c5,1.7,9.7,1.5,13.7-0.7c0.2-0.1,0.4-0.2,0.5-0.3C219.4,242.5,216.5,247,211.5,250.4z M163.8,117.9
	l-6.6,42.8c-0.1,0.4-0.3,0.6-0.8,0.7l-7,1.1c-0.6,0.1-0.8-0.2-0.7-0.8l6.6-42.8c0.1-0.4,0.3-0.6,0.8-0.7l7-1.1
	C163.7,117.1,163.9,117.3,163.8,117.9z M144.4,154.5c0.2,0.2,0.5,0.5,0.7,0.7c0.1,0.4-0.2,0.5-0.4,0.7c-1.3,1.3-2.6,2.6-3.8,3.9
	c-0.4,0.5-0.7,0.4-1.2,0c-5.9-4.7-11.9-9.4-17.9-14.1c-0.5-0.4-0.4-0.7-0.1-1.2c4.3-6.2,8.5-12.4,12.8-18.7c0.4-0.5,0.6-0.6,1.2-0.3
	c1.5,0.9,3,1.7,4.6,2.5c0.8,0.4,0.7,0.7,0.3,1.4c-2.4,4.3-4.7,8.6-7.2,12.8c-0.6,1-0.4,1.5,0.4,2.2
	C137.5,147.8,140.9,151.2,144.4,154.5z M190.6,135.5c-4.3,6.2-8.5,12.4-12.7,18.5c-0.4,0.6-0.7,0.7-1.3,0.3
	c-1.4-0.8-2.9-1.6-4.3-2.4c-0.8-0.4-0.9-0.7-0.5-1.5c2.4-4.3,4.8-8.6,7.2-13c0.2-0.3,0.5-0.6,0.4-1.1c-0.2-0.2-0.4-0.5-0.7-0.7
	c-3.6-3.4-7.1-6.9-10.7-10.2c-0.6-0.6-0.7-1-0.1-1.6c1.2-1.1,2.3-2.3,3.5-3.5c0.5-0.5,0.8-0.6,1.4-0.1c5.9,4.7,11.7,9.3,17.6,14
	C190.9,134.6,191,134.9,190.6,135.5z M518.3,238.9c0.1,0.2,0.1,0.3,0.1,0.4c0,0-0.1,0.1-0.3,0.1h-10.9c-0.5,0-0.6-0.2-0.7-0.4
	l-14.7-23.8c-0.1-0.3-0.4-0.4-0.7-0.4c-0.2,0-0.4,0.1-0.7,0.4l-5.2,6.5l-0.1,0.1c-0.1,0.3-0.2,0.5-0.2,0.7v16.5c0,0.1,0,0.3-0.1,0.4
	c-0.1,0.1-0.2,0.1-0.4,0.1h-9.7c-0.1,0-0.3,0-0.4-0.1c-0.1-0.1-0.1-0.2-0.1-0.4v-56c0-0.1,0-0.3,0.1-0.4c0.1-0.1,0.2-0.1,0.4-0.1
	h9.7c0.1,0,0.3,0,0.3,0.1c0.1,0.1,0.1,0.2,0.1,0.4V206c0,0.5,0.3,0.7,0.5,0.8c0.2,0,0.5,0.1,0.8-0.3l19.1-23.8
	c0.2-0.3,0.5-0.4,0.9-0.4h10.9c0.3,0,0.4,0.1,0.4,0.1c0,0.1-0.1,0.3-0.1,0.4l-18.5,23.6c-0.4,0.5-0.2,1-0.1,1.1L518.3,238.9z
	 M559.7,210.5c-0.3-0.2-0.5-0.4-0.5-0.7c0-0.3,0.2-0.5,0.5-0.7c4.6-2.3,6.8-6,6.8-11.4c0-10.4-6.3-15.4-19.1-15.4h-20.8
	c-0.1,0-0.3,0-0.4,0.1c-0.1,0.1-0.1,0.2-0.1,0.4v56c0,0.1,0,0.3,0.1,0.4c0.1,0.1,0.2,0.1,0.4,0.1H548c5.8,0,10.5-1.3,14-4
	c3.5-2.6,5.3-6.6,5.3-11.7C567.3,217.4,564.8,213.1,559.7,210.5z M536.7,192.2c0-0.6,0.4-0.9,0.9-0.9h9.7c2.7,0,4.9,0.7,6.4,2
	c1.5,1.3,2.3,3.2,2.3,5.5c0,2.2-0.8,4-2.3,5.4c-1.5,1.3-3.7,1.9-6.4,1.9h-9.7c-0.6,0-0.9-0.4-0.9-0.9V192.2z M554.3,228.1
	c-1.5,1.4-3.6,2.1-6.3,2.1h-10.4c-0.6,0-0.9-0.4-0.9-0.9v-13.8c0-0.6,0.4-0.9,0.9-0.9h10.3c2.7,0,4.9,0.7,6.4,2.1
	c1.5,1.4,2.3,3.3,2.3,5.7C556.6,224.8,555.8,226.7,554.3,228.1z M479.8,139.9h-9.7c-0.1,0-0.3,0-0.4-0.1s-0.1-0.2-0.1-0.4v-56
	c0-0.1,0-0.3,0.1-0.3c0.1-0.1,0.2-0.1,0.4-0.1h9.4c0.5,0,0.6,0.2,0.7,0.4l21.4,35.3c0.3,0.5,0.7,0.5,0.9,0.4c0.2,0,0.5-0.2,0.5-0.9
	l-0.1-34.8c0-0.1,0-0.3,0.1-0.3c0.1-0.1,0.2-0.1,0.4-0.1h9.7c0.1,0,0.3,0,0.3,0.1c0.1,0.1,0.1,0.2,0.1,0.4v56c0,0.1,0,0.3-0.1,0.4
	c-0.1,0.1-0.2,0.1-0.4,0.1h-9.4c-0.5,0-0.6-0.2-0.7-0.4L481.5,104c-0.2-0.4-0.5-0.4-0.7-0.4c-0.1,0-0.1,0-0.2,0
	c-0.2,0-0.5,0.2-0.5,0.9l0.2,35c0,0.1,0,0.3-0.1,0.4S479.9,139.9,479.8,139.9z M611.9,139.9h-38.3c-0.1,0-0.3,0-0.4-0.1
	c-0.1-0.1-0.1-0.2-0.1-0.4v-56c0-0.1,0-0.3,0.1-0.4c0.1-0.1,0.2-0.1,0.4-0.1h38.3c0.1,0,0.3,0,0.3,0.1c0.1,0.1,0.1,0.2,0.1,0.4v8
	c0,0.1,0,0.3-0.1,0.3c-0.1,0.1-0.2,0.1-0.4,0.1h-27.2c-0.6,0-0.9,0.4-0.9,0.9v12.8c0,0.6,0.4,0.9,0.9,0.9h17.8c0.1,0,0.3,0,0.4,0.1
	c0.1,0.1,0.1,0.2,0.1,0.3v8c0,0.1,0,0.3-0.1,0.4c-0.1,0.1-0.2,0.1-0.4,0.1h-17.8c-0.6,0-0.9,0.4-0.9,0.9v13.4c0,0.6,0.4,0.9,0.9,0.9
	h27.2c0.1,0,0.3,0,0.3,0.1c0.1,0.1,0.1,0.2,0.1,0.4v8c0,0.1,0,0.2-0.1,0.4C612.2,139.8,612.1,139.9,611.9,139.9z M660.1,184.2
	c-3.2-1.7-7-2.6-11.2-2.6c-4.2,0-8,0.9-11.2,2.6c-3.2,1.7-5.7,4.1-7.5,7.1c-1.8,3.1-2.7,6.6-2.7,10.6v17.7c0,4,0.9,7.6,2.7,10.7
	c1.8,3.1,4.3,5.5,7.5,7.2c3.2,1.7,7,2.6,11.2,2.6c4.3,0,8-0.9,11.2-2.6c3.2-1.7,5.7-4.1,7.5-7.2c1.8-3.1,2.7-6.7,2.7-10.8v-17.7
	c0-4-0.9-7.5-2.7-10.6C665.8,188.3,663.3,185.9,660.1,184.2z M659.6,220.1c0,3.3-1,6-3,8.1c-2,2-4.6,3.1-7.7,3.1
	c-3.2,0-5.8-1-7.7-3.1c-1.9-2-2.9-4.7-2.9-8.1v-18.2c0-3.3,1-6,2.9-8.1c1.9-2.1,4.5-3.1,7.7-3.1c3.2,0,5.8,1,7.8,3.1
	c1.9,2,2.9,4.8,2.9,8.1V220.1z M427.1,138.2c3.2,1.7,7,2.6,11.2,2.6c4.3,0,8-0.9,11.2-2.6c3.2-1.7,5.7-4.1,7.5-7.2
	c1.8-3.1,2.7-6.7,2.7-10.8v-17.7c0-4-0.9-7.5-2.7-10.6c-1.8-3.1-4.3-5.5-7.5-7.1c-3.2-1.7-7-2.6-11.2-2.6c-4.2,0-8,0.9-11.2,2.6
	c-3.2,1.7-5.7,4.1-7.5,7.1c-1.8,3.1-2.7,6.6-2.7,10.6v17.7c0,4,0.9,7.6,2.7,10.7C421.4,134,423.9,136.5,427.1,138.2z M427.6,102.4
	c0-3.3,1-6,2.9-8.1c1.9-2.1,4.5-3.1,7.7-3.1c3.2,0,5.8,1,7.8,3.1c1.9,2,2.9,4.8,2.9,8.1v18.2c0,3.3-1,6-3,8.1c-2,2-4.6,3.1-7.7,3.1
	c-3.2,0-5.8-1-7.7-3.1c-1.9-2-2.9-4.7-2.9-8.1V102.4z M608.7,184.2c-3.2-1.7-7-2.6-11.2-2.6c-4.2,0-8,0.9-11.2,2.6
	c-3.2,1.7-5.7,4.1-7.5,7.1c-1.8,3.1-2.7,6.6-2.7,10.6v17.7c0,4,0.9,7.6,2.7,10.7c1.8,3.1,4.3,5.5,7.5,7.2c3.2,1.7,7,2.6,11.2,2.6
	c4.3,0,8-0.9,11.2-2.6c3.2-1.7,5.7-4.1,7.5-7.2c1.8-3.1,2.7-6.7,2.7-10.8v-17.7c0-4-0.9-7.5-2.7-10.6
	C614.4,188.3,611.9,185.9,608.7,184.2z M608.1,220.1c0,3.3-1,6-3,8.1c-2,2-4.6,3.1-7.7,3.1c-3.2,0-5.8-1-7.7-3.1
	c-1.9-2-2.9-4.7-2.9-8.1v-18.2c0-3.3,1-6,2.9-8.1c1.9-2.1,4.5-3.1,7.7-3.1c3.2,0,5.8,1,7.8,3.1c1.9,2,2.9,4.8,2.9,8.1V220.1z
	 M536.9,92h-14.4c-0.1,0-0.3,0-0.4-0.1c-0.1-0.1-0.1-0.2-0.1-0.3v-8.1c0-0.1,0-0.3,0.1-0.4s0.2-0.1,0.4-0.1h41.8
	c0.1,0,0.3,0,0.3,0.1c0.1,0.1,0.1,0.2,0.1,0.4v8.1c0,0.1,0,0.2-0.1,0.4c-0.1,0.1-0.2,0.1-0.3,0.1h-14.8c-0.6,0-0.9,0.4-0.9,0.9v46.5
	c0,0.1,0,0.3-0.1,0.4c-0.1,0.1-0.2,0.1-0.4,0.1h-9.7c-0.1,0-0.3,0-0.4-0.1c-0.1-0.1-0.1-0.2-0.1-0.3V92.9
	C537.8,92.3,537.4,92,536.9,92z M454.1,184.2c-3.2-1.7-7-2.6-11.2-2.6c-4.2,0-8,0.9-11.2,2.6c-3.2,1.7-5.7,4.1-7.5,7.1
	c-1.8,3.1-2.7,6.6-2.7,10.6v17.7c0,4,0.9,7.6,2.7,10.7c1.8,3.1,4.3,5.5,7.5,7.2c3.2,1.7,7,2.6,11.2,2.6c4.3,0,8-0.9,11.2-2.6
	c3.2-1.7,5.7-4.1,7.5-7.2c1.8-3.1,2.7-6.7,2.7-10.8v-17.7c0-4-0.9-7.5-2.7-10.6C459.7,188.3,457.2,185.9,454.1,184.2z M453.5,220.1
	c0,3.3-1,6-3,8.1c-2,2-4.6,3.1-7.7,3.1c-3.2,0-5.8-1-7.7-3.1c-1.9-2-2.9-4.7-2.9-8.1v-18.2c0-3.3,1-6,2.9-8.1
	c1.9-2.1,4.5-3.1,7.7-3.1c3.2,0,5.8,1,7.8,3.1c1.9,2,2.9,4.8,2.9,8.1V220.1z M708,137.7c3-1.4,5.4-3.4,7-6c1.7-2.6,2.5-5.6,2.5-8.9
	V99.9c0-3.4-0.8-6.4-2.5-8.9c-1.7-2.6-4-4.6-7-6c-3-1.4-6.6-2.1-10.7-2.1h-20.7c-0.1,0-0.3,0-0.4,0.1c-0.1,0.1-0.1,0.2-0.1,0.3v56
	c0,0.1,0,0.3,0.1,0.4c0.1,0.1,0.2,0.1,0.4,0.1h20.7C701.4,139.9,705,139.2,708,137.7z M686.8,129.9V92.8c0-0.6,0.4-0.9,0.9-0.9h9.9
	c2.8,0,5,0.9,6.7,2.7c1.7,1.8,2.5,4.2,2.5,7.2v19.1c-0.1,3-0.9,5.4-2.6,7.2c-1.7,1.8-3.9,2.7-6.5,2.7h-10
	C687.2,130.8,686.8,130.5,686.8,129.9z M724.5,239.2c0,0-0.1,0.1-0.3,0.1h-10.9c-0.5,0-0.6-0.2-0.7-0.4l-14.7-23.8
	c-0.1-0.3-0.4-0.4-0.7-0.4c-0.2,0-0.5,0.1-0.7,0.4l-5.2,6.5l-0.1,0.1c-0.1,0.3-0.2,0.5-0.2,0.7v16.5c0,0.1,0,0.3-0.1,0.4
	c-0.1,0.1-0.2,0.1-0.4,0.1h-9.7c-0.1,0-0.3,0-0.4-0.1c-0.1-0.1-0.1-0.2-0.1-0.4v-56c0-0.1,0-0.3,0.1-0.4c0.1-0.1,0.2-0.1,0.4-0.1
	h9.7c0.1,0,0.3,0,0.3,0.1c0.1,0.1,0.1,0.2,0.1,0.4V206c0,0.5,0.3,0.7,0.5,0.8c0.2,0,0.5,0.1,0.8-0.3l19.1-23.8
	c0.2-0.3,0.5-0.4,0.9-0.4h10.9c0.3,0,0.4,0.1,0.4,0.1c0,0.1-0.1,0.3-0.1,0.4L705,206.4c-0.4,0.6-0.2,1-0.1,1.1l19.5,31.4
	C724.5,239.1,724.5,239.2,724.5,239.2z M321,139.7c-0.1-0.1-0.1-0.2-0.1-0.4v-56c0-0.1,0-0.3,0.1-0.4c0.1-0.1,0.2-0.1,0.4-0.1h38.2
	c0.1,0,0.3,0,0.3,0.1c0.1,0.1,0.1,0.2,0.1,0.4v8c0,0.1,0,0.3-0.1,0.3c-0.1,0.1-0.2,0.1-0.4,0.1h-27.1c-0.6,0-0.9,0.4-0.9,0.9v12.8
	c0,0.6,0.4,0.9,0.9,0.9h17.8c0.1,0,0.3,0,0.4,0.1s0.1,0.2,0.1,0.3v8c0,0.1,0,0.3-0.1,0.4c-0.1,0.1-0.2,0.1-0.4,0.1h-17.8
	c-0.6,0-0.9,0.4-0.9,0.9v22.9c0,0.1,0,0.3-0.1,0.4c-0.1,0.1-0.2,0.1-0.4,0.1h-9.7C321.2,139.9,321.1,139.8,321,139.7z M330.4,200.9
	v20c0,3,1,5.5,2.8,7.3c1.9,1.9,4.4,2.8,7.5,2.8c3.1,0,5.6-0.9,7.4-2.8c1.9-1.9,2.8-4.3,2.8-7.3c0-0.3,0-0.4,0.5-0.4l9.7,0.4
	c0.2,0,0.3,0,0.4,0.1c0.1,0.1,0.1,0.2,0.1,0.2c0,3.7-0.9,7-2.6,9.8c-1.7,2.8-4.2,5.1-7.3,6.6c-3.1,1.6-6.8,2.4-11,2.4
	c-4.2,0-8-0.8-11.1-2.5c-3.2-1.6-5.6-4-7.3-6.9c-1.7-2.9-2.6-6.4-2.6-10.3v-19.1c0-3.9,0.9-7.3,2.6-10.3c1.7-2.9,4.2-5.2,7.3-6.8
	c3.2-1.6,6.9-2.4,11.1-2.4c4.2,0,7.9,0.8,11,2.3c3.1,1.5,5.6,3.7,7.3,6.5c1.7,2.8,2.6,6.1,2.6,9.8c0,0.1,0,0.3-0.5,0.4l-9.7,0.6
	h-0.2c-0.2,0-0.3,0-0.3-0.4c0-3.1-1-5.5-2.8-7.4c-1.9-1.9-4.4-2.8-7.4-2.8c-3.1,0-5.6,0.9-7.5,2.8
	C331.3,195.3,330.4,197.8,330.4,200.9z M402.6,184.2L402.6,184.2c-3.2-1.7-7-2.6-11.2-2.6c-4.2,0-8,0.9-11.2,2.6
	c-3.2,1.7-5.7,4.1-7.5,7.1c-1.8,3.1-2.7,6.6-2.7,10.6v17.7c0,4,0.9,7.6,2.7,10.7c1.8,3.1,4.3,5.5,7.5,7.2c3.2,1.7,7,2.6,11.2,2.6
	c4.3,0,8-0.9,11.2-2.6c3.2-1.7,5.7-4.1,7.5-7.2c1.8-3.1,2.7-6.7,2.7-10.8v-17.7c0-4-0.9-7.5-2.7-10.6
	C408.3,188.3,405.8,185.9,402.6,184.2z M402,220.1c0,3.3-1,6-3,8.1c-2,2-4.6,3.1-7.7,3.1c-3.2,0-5.8-1-7.7-3.1
	c-1.9-2-2.9-4.7-2.9-8.1v-18.2c0-3.3,1-6,2.9-8.1c1.9-2.1,4.5-3.1,7.7-3.1c3.2,0,5.8,1,7.8,3.1c1.9,2,2.9,4.8,2.9,8.1V220.1z
	 M377.8,139.7c0.1-0.1,0.1-0.2,0.1-0.4v-22.6c0-0.6,0.4-0.9,0.9-0.9h7.7c0.4,0,0.7,0.2,0.9,0.6l10.4,23c0.1,0.3,0.4,0.5,0.7,0.5
	h10.2c0.4,0,0.4-0.1,0.4-0.2c0,0,0-0.1-0.1-0.3L397.8,116c-0.1-0.4-0.1-0.6,0-0.8c0.1-0.2,0.2-0.4,0.5-0.5c3.3-1.1,5.8-2.9,7.6-5.5
	c1.8-2.6,2.7-5.7,2.7-9.4c0-3.4-0.7-6.4-2.1-9c-1.4-2.6-3.4-4.5-6-5.9c-2.6-1.4-5.7-2.1-9.1-2.1h-23.7c-0.1,0-0.3,0-0.4,0.1
	c-0.1,0.1-0.1,0.2-0.1,0.3v56c0,0.1,0,0.3,0.1,0.4c0.1,0.1,0.2,0.1,0.4,0.1h9.7C377.6,139.9,377.7,139.8,377.8,139.7z M377.9,92.8
	c0-0.6,0.4-0.9,0.9-0.9h10.9c2.4,0,4.5,0.8,6,2.3c1.6,1.5,2.3,3.4,2.3,5.8c0,2.3-0.8,4.3-2.4,5.7c-1.6,1.5-3.6,2.2-6,2.2h-10.9
	c-0.6,0-0.9-0.4-0.9-0.9V92.8z M631.7,139.9H622c-0.1,0-0.3,0-0.4-0.1c-0.1-0.1-0.1-0.2-0.1-0.4v-56c0-0.1,0-0.3,0.1-0.3
	c0.1-0.1,0.2-0.1,0.4-0.1h9.4c0.5,0,0.6,0.2,0.7,0.4l21.4,35.3c0.3,0.5,0.7,0.5,0.9,0.4c0.2,0,0.5-0.2,0.5-0.9l-0.1-34.8
	c0-0.1,0-0.3,0.1-0.4c0.1-0.1,0.2-0.1,0.4-0.1h9.7c0.1,0,0.3,0,0.3,0.1c0.1,0.1,0.1,0.2,0.1,0.4v56c0,0.1,0,0.3-0.1,0.4
	c-0.1,0.1-0.2,0.1-0.4,0.1h-9.4c-0.5,0-0.6-0.2-0.7-0.4L633.5,104c-0.2-0.4-0.5-0.4-0.7-0.4c-0.1,0-0.1,0-0.2,0
	c-0.2,0-0.5,0.2-0.5,0.9l0.2,35c0,0.1,0,0.3-0.1,0.4C632,139.8,631.9,139.9,631.7,139.9z"/>
</svg>
